Coordinates
version=1
nRows=13
nColumns=40
inDegrees=yes

Units are S.I. units (second, meters, Newtons, ...)
Angles are in degrees.

endheader
time	pelvis_tilt	pelvis_list	pelvis_rotation	pelvis_tx	pelvis_ty	pelvis_tz	hip_flexion_r	hip_adduction_r	hip_rotation_r	knee_angle_r	knee_angle_r_beta	ankle_angle_r	subtalar_angle_r	mtp_angle_r	hip_flexion_l	hip_adduction_l	hip_rotation_l	knee_angle_l	knee_angle_l_beta	ankle_angle_l	subtalar_angle_l	mtp_angle_l	lumbar_extension	lumbar_bending	lumbar_rotation	arm_flex_r	arm_add_r	arm_rot_r	elbow_flex_r	pro_sup_r	wrist_flex_r	wrist_dev_r	arm_flex_l	arm_add_l	arm_rot_l	elbow_flex_l	pro_sup_l	wrist_flex_l	wrist_dev_l
      0.00000000	     -4.61642305	      0.12381983	      2.04303448	     -1.32535500	      0.88527917	      1.43441281	     -6.33431940	     -2.06259464	    -19.80367487	    -11.87149847	     -0.20719674	     13.97205413	     14.82142356	    -15.03439339	     28.23318771	      0.12604697	     11.17710987	    -33.76883279	     -0.58937732	      5.37389921	     -1.93438319	    -10.92269456	     -8.23684066	      0.88485394	      4.29732705	     20.83967243	    -17.83249580	     11.49326007	     22.57145877	     89.95437384	      0.00000000	      0.00000000	      4.67392160	     12.04828340	     -6.76595113	     11.00533027	     89.95437384	      0.00000000	      0.00000000
      0.01000000	     -4.69669877	     -0.00260818	      2.24090537	     -1.31989185	      0.88406266	      1.43539728	     -6.55100521	     -1.85881682	    -19.71222706	    -12.07671945	     -0.21077852	     13.96649000	     14.68433283	    -14.91408834	     28.84939915	      0.26136603	     11.37403197	    -33.13087702	     -0.57824289	      5.24216678	     -1.86158368	    -10.77171906	     -8.31216579	      1.02966622	      4.40701821	     20.89080772	    -17.64766396	     11.54074473	     22.91922257	     89.95437384	      0.00000000	      0.00000000	      4.00226910	     12.51764030	     -6.71857374	     10.61026245	     89.95437384	      0.00000000	      0.00000000
      0.02000000	     -4.78703692	     -0.15553873	      2.37942090	     -1.31414582	      0.88275032	      1.43664312	     -6.75580712	     -1.60599399	    -19.61000603	    -12.29755556	     -0.21463283	     13.95659667	     14.56865753	    -14.79651068	     29.39030266	      0.45340292	     11.38770010	    -32.30750271	     -0.56387230	      5.15070902	     -1.84534906	    -10.62318389	     -8.34785599	      1.14996380	      4.58206349	     20.86570211	    -17.40650526	     11.63119994	     23.26823381	     89.95437384	      0.00000000	      0.00000000	      3.31609647	     12.99555761	     -6.65276040	     10.29082403	     89.95437384	      0.00000000	      0.00000000
      0.03000000	     -4.53717569	     -0.01118468	      2.51878701	     -1.30839465	      0.88231280	      1.43706265	     -7.37767854	     -1.70885641	    -19.37320783	    -12.44715566	     -0.21724385	     14.14374638	     14.71919697	    -14.74320509	     29.41355077	      0.22342648	     11.82244213	    -31.32707730	     -0.54676064	      4.06489914	     -1.72193388	    -10.32073237	     -8.85984823	      1.02807524	      4.77406623	     20.82311186	    -17.40838375	     12.19790376	     23.77679666	     89.95437384	      0.00000000	      0.00000000	      2.84575822	     13.31316851	     -6.46332162	      9.93050183	     89.95437384	      0.00000000	      0.00000000
      0.04000000	     -4.28186204	      0.16172908	      2.69001230	     -1.30220813	      0.88163175	      1.43747249	     -7.99671717	     -1.88513273	    -19.44912417	    -12.72677287	     -0.22212409	     14.17632913	     14.84173630	    -14.63937619	     29.45038814	      0.00324748	     12.25358933	    -30.53126245	     -0.53287105	      3.69303583	     -1.79368181	    -10.15884439	     -9.24889577	      0.84325379	      4.88156768	     20.73771353	    -17.32389903	     12.80858855	     24.17536332	     89.95437384	      0.00000000	      0.00000000	      2.21400299	     13.69080543	     -6.31455541	      9.79260597	     89.95437384	      0.00000000	      0.00000000
      0.05000000	     -4.34761707	      0.11733591	      2.97057239	     -1.29622246	      0.88045471	      1.43787087	     -8.15865188	     -1.77059137	    -19.24287129	    -13.12471516	     -0.22906949	     14.00234195	     14.49514170	    -14.42813839	     30.10069117	     -0.04998832	     12.39661590	    -30.26558009	     -0.52823402	      3.59662948	     -1.67045720	     -9.97311701	     -9.36218347	      0.88947499	      4.94702865	     20.59102198	    -17.14866432	     12.84222754	     24.55044586	     89.95437384	      0.00000000	      0.00000000	      1.58464653	     14.03445527	     -6.26127439	      9.80237924	     89.95437384	      0.00000000	      0.00000000
      0.06000000	     -4.44279125	      0.13519429	      3.25721229	     -1.28970157	      0.87935417	      1.43777293	     -8.39803423	     -1.73692299	    -18.98053154	    -13.39514194	     -0.23378933	     14.03395402	     14.24569688	    -14.26533903	     30.59235418	     -0.21217353	     12.77828430	    -29.74222585	     -0.51909977	      3.40000220	     -1.52557408	     -9.77371280	     -9.40039561	      0.92644364	      4.88879035	     20.39612281	    -17.01363782	     13.01313351	     24.96819777	     89.95437384	      0.00000000	      0.00000000	      0.88024792	     14.27069041	     -6.22897952	      9.76845931	     89.95437384	      0.00000000	      0.00000000
      0.07000000	     -4.26653835	      0.60707046	      3.24799626	     -1.28288697	      0.87892438	      1.43789009	     -8.87896305	     -2.27396951	    -18.52255057	    -13.83642300	     -0.24149114	     14.27474789	     14.05196999	    -14.04332557	     30.53534161	     -0.77609427	     13.31390107	    -28.96817028	     -0.50558995	      2.79495932	     -1.26620680	     -9.41768101	     -9.80329042	      0.40234693	      5.08800496	     20.09564923	    -17.04277498	     13.92412129	     25.60172244	     89.95437384	      0.00000000	      0.00000000	      0.21661841	     14.58184463	     -6.25552543	      9.98314702	     89.95437384	      0.00000000	      0.00000000
      0.08000000	     -4.35583552	      0.60903509	      3.49689673	     -1.27604424	      0.87793310	      1.43791429	     -9.05301987	     -2.25062148	    -18.26451705	    -14.27386612	     -0.24912596	     14.06569861	     13.74087581	    -13.81878365	     31.04601102	     -0.94656526	     13.46414166	    -28.78941744	     -0.50247012	      2.71672403	     -1.16807919	     -9.23039273	     -9.87933646	      0.42117831	      5.07416035	     19.82644717	    -16.87306066	     14.01726558	     25.97934666	     89.95437384	      0.00000000	      0.00000000	     -0.35688790	     14.77424569	     -6.24838763	     10.00119015	     89.95437384	      0.00000000	      0.00000000
      0.09000000	     -4.32919277	      0.94686899	      3.53176223	     -1.26874954	      0.87727848	      1.43778988	     -9.34722464	     -2.67164858	    -17.85536850	    -14.79385672	     -0.25820151	     14.02366456	     13.59537267	    -13.57478894	     31.19290521	     -1.45692099	     13.76443188	    -28.36033805	     -0.49498128	      2.36980299	     -0.98788111	     -8.91892442	    -10.07180112	      0.05469916	      5.26050347	     19.39022685	    -16.86125429	     14.59141326	     26.51643453	     89.95437384	      0.00000000	      0.00000000	     -0.86238599	     14.95886423	     -6.34116683	      9.99820270	     89.95437384	      0.00000000	      0.00000000
      0.10000000	     -4.41070100	      0.91887602	      3.66606619	     -1.26137919	      0.87640840	      1.43784307	     -9.49283879	     -2.65712270	    -17.55053083	    -15.33835484	     -0.26770479	     13.69965458	     13.19864088	    -13.31991696	     31.64324655	     -1.61956576	     13.67178862	    -28.41082221	     -0.49586239	      2.25715152	     -0.92289527	     -8.73477524	    -10.12146845	      0.07134896	      5.39032110	     18.98741622	    -16.67628486	     14.61782772	     26.78924402	     89.95437384	      0.00000000	      0.00000000	     -1.44374995	     15.09792652	     -6.30256029	     10.15959745	     89.95437384	      0.00000000	      0.00000000
      0.11000000	     -4.46556409	      1.04433640	      3.82304654	     -1.25369684	      0.87574032	      1.43754507	     -9.72856905	     -2.81068951	    -17.10498246	    -15.81669932	     -0.27605348	     13.44434490	     13.05275635	    -13.11982513	     31.85954817	     -1.94137454	     13.95544970	    -28.23195073	     -0.49274049	      2.21532175	     -0.80580254	     -8.54910238	    -10.19340671	     -0.06226073	      5.39234620	     18.59192632	    -16.52732043	     14.83709723	     27.01206376	     89.95437384	      0.00000000	      0.00000000	     -1.91897572	     15.17406930	     -6.34986852	     10.09109791	     89.95437384	      0.00000000	      0.00000000
      0.12000000	     -4.16437244	      1.58337315	      3.57321579	     -1.24531919	      0.87578752	      1.43729319	    -10.26652511	     -3.58225024	    -16.71607619	    -16.52450127	     -0.28840695	     13.04037984	     13.33549980	    -12.88192687	     31.35690766	     -2.59487875	     14.29656190	    -27.80207589	     -0.48523776	      2.29259001	     -0.57555747	     -8.22842908	    -10.67784503	     -0.65933211	      5.80666435	     18.15170510	    -16.55734960	     15.61082503	     27.18135383	     89.95437384	      0.00000000	      0.00000000	     -2.27066230	     15.23933300	     -6.53681044	     10.03871937	     89.95437384	      0.00000000	      0.00000000
